<svg width="43" height="77" viewBox="0 0 43 77" fill="none" xmlns="http://www.w3.org/2000/svg">
<path d="M9.5 25.65C8.96667 26.95 8.43333 28.5333 7.9 30.4C7.4 32.2667 6.96667 34.2333 6.6 36.3C6.23333 38.3667 5.98333 40.4333 5.85 42.5C5.75 44.5667 5.83333 46.4167 6.1 48.05C6.36667 49.7167 6.85 51.05 7.55 52.05C8.28333 53.0833 9.3 53.6 10.6 53.6C11.8333 53.6 13.0667 53.25 14.3 52.55C15.5333 51.8833 16.7 51 17.8 49.9C18.9 48.8333 19.9167 47.65 20.85 46.35C21.7833 45.0833 22.6 43.85 23.3 42.65C23.3333 42.4833 23.35 42.35 23.35 42.25C23.3833 42.15 23.4167 42.05 23.45 41.95C23.45 41.85 23.5 41.55 23.6 41.05C23.7333 40.55 23.8667 39.95 24 39.25C24.1667 38.55 24.3167 37.8 24.45 37C24.6167 36.1667 24.7333 35.4 24.8 34.7C24.9 33.9667 24.9333 33.3333 24.9 32.8C24.9 32.2333 24.8167 31.8833 24.65 31.75C24.3833 31.5167 24.3667 31.3 24.6 31.1C24.8333 30.9 25.1833 30.75 25.65 30.65C26.15 30.5167 26.7 30.45 27.3 30.45C27.9333 30.45 28.5333 30.55 29.1 30.75C29.6667 30.95 30.1333 31.2667 30.5 31.7C30.9 32.1 31.0833 32.65 31.05 33.35C31.05 33.95 30.9833 34.7167 30.85 35.65C30.7167 36.5833 30.55 37.6167 30.35 38.75C30.1833 39.85 29.9667 41.0167 29.7 42.25C29.4667 43.4833 29.2333 44.7 29 45.9C29.0333 46.6667 29.2333 47.0833 29.6 47.15C30 47.2167 30.5167 46.9833 31.15 46.45C31.7833 45.95 32.5 45.2 33.3 44.2C34.1 43.2333 34.95 42.1 35.85 40.8C36.75 39.5 37.65 38.0833 38.55 36.55C39.4833 34.9833 40.3667 33.4 41.2 31.8C41.6333 31.6667 41.9667 31.65 42.2 31.75C42.4333 31.85 42.6333 32.0833 42.8 32.45C42.5 33.1833 42.05 34.1333 41.45 35.3C40.85 36.4667 40.15 37.7 39.35 39C38.5833 40.3 37.7333 41.6167 36.8 42.95C35.8667 44.25 34.9 45.4333 33.9 46.5C32.9333 47.5667 31.95 48.4167 30.95 49.05C29.95 49.7167 29 50.0333 28.1 50C27.9 50.8667 27.6833 51.7833 27.45 52.75C27.25 53.7167 27.0833 54.4833 26.95 55.05C27.6833 54.8167 28.5 54.65 29.4 54.55C30.3 54.45 31.2 54.4167 32.1 54.45C33.0333 54.4833 33.9333 54.5833 34.8 54.75C35.6667 54.95 36.4333 55.2 37.1 55.5C38.0333 55.9333 38.7167 56.55 39.15 57.35C39.6167 58.15 39.8667 58.9833 39.9 59.85C39.9333 60.7167 39.7667 61.55 39.4 62.35C39.0667 63.15 38.5667 63.7667 37.9 64.2C37.2333 64.6333 36.4167 64.8167 35.45 64.75C34.5167 64.7167 33.4667 64.2833 32.3 63.45C31.9333 63.1833 31.7 62.9 31.6 62.6C31.5 62.3 31.4833 62.0333 31.55 61.8C31.65 61.5667 31.8333 61.4167 32.1 61.35C32.3667 61.3167 32.7 61.4167 33.1 61.65C34.2667 62.35 35.1833 62.6167 35.85 62.45C36.55 62.2833 37.0167 61.9 37.25 61.3C37.5167 60.7333 37.5667 60.0833 37.4 59.35C37.2667 58.6167 36.95 58.0333 36.45 57.6C36.0833 57.3 35.4833 57.05 34.65 56.85C33.8167 56.6833 32.9 56.6 31.9 56.6C30.9333 56.6333 29.95 56.7667 28.95 57C27.9833 57.2667 27.1833 57.6667 26.55 58.2C25.8167 59.9333 25.1 61.5833 24.4 63.15C23.7 64.7167 22.9333 66.1833 22.1 67.55C21.3 68.9167 20.4 70.15 19.4 71.25C18.4 72.3833 17.2167 73.35 15.85 74.15C14.0833 75.2167 12.3833 75.8 10.75 75.9C9.11667 76 7.73333 75.75 6.6 75.15C5.5 74.5833 4.75 73.7167 4.35 72.55C3.95 71.4167 4.08333 70.1167 4.75 68.65C5.41667 67.15 6.45 65.7333 7.85 64.4C9.28333 63.0667 10.7833 61.8667 12.35 60.8C13.95 59.7667 15.4667 58.8833 16.9 58.15C18.3667 57.4167 19.4667 56.9 20.2 56.6C20.7333 55.4 21.1333 54.05 21.4 52.55C21.6667 51.0833 21.9833 49.4667 22.35 47.7C21.2833 49.1 20.0833 50.4167 18.75 51.65C17.45 52.9167 16.0667 53.9333 14.6 54.7C13.1667 55.5 11.6833 55.9833 10.15 56.15C8.65 56.3167 7.15 56.0167 5.65 55.25C4.28333 54.55 3.18333 53.4333 2.35 51.9C1.51667 50.4 0.933333 48.6167 0.6 46.55C0.266667 44.4833 0.166667 42.2167 0.3 39.75C0.433333 37.2833 0.783333 34.7333 1.35 32.1C1.91667 29.4667 2.66667 26.8167 3.6 24.15C4.56667 21.4833 5.7 18.95 7 16.55C8.3 14.1167 9.76667 11.8667 11.4 9.8C13.0333 7.73333 14.7833 5.98333 16.65 4.55C18.55 3.11666 20.5667 2.06667 22.7 1.4C24.8667 0.699998 27.1167 0.516664 29.45 0.849997C31.1833 1.08333 32.6 1.53333 33.7 2.2C34.8333 2.83333 35.7167 3.6 36.35 4.5C37.0167 5.4 37.4833 6.38333 37.75 7.45C38.0167 8.48333 38.1667 9.51667 38.2 10.55C38.2333 11.55 38.1667 12.5167 38 13.45C37.8667 14.3833 37.7167 15.1833 37.55 15.85C37.0833 17.65 36.3833 19.2167 35.45 20.55C34.5167 21.85 33.4667 22.9167 32.3 23.75C31.1667 24.55 29.9667 25.0833 28.7 25.35C27.4333 25.6167 26.2167 25.5833 25.05 25.25C23.9167 24.9167 22.8833 24.2667 21.95 23.3C21.05 22.3333 20.3833 21.0333 19.95 19.4C19.65 18.3667 19.5333 17.4333 19.6 16.6C19.6667 15.7667 19.8167 15.2 20.05 14.9C20.3167 14.5667 20.6167 14.5667 20.95 14.9C21.3167 15.2 21.65 16 21.95 17.3C22.45 19.6667 23.2167 21.2667 24.25 22.1C25.3167 22.9 26.4167 23.1333 27.55 22.8C28.7167 22.4333 29.8167 21.5833 30.85 20.25C31.9167 18.8833 32.7167 17.2167 33.25 15.25C33.65 13.85 33.8667 12.4333 33.9 11C33.9667 9.53333 33.85 8.21667 33.55 7.05C33.2833 5.85 32.85 4.86666 32.25 4.1C31.65 3.33333 30.8833 2.91666 29.95 2.85C27.7833 2.75 25.75 3.26666 23.85 4.4C21.9833 5.5 20.2167 7.08333 18.55 9.15C16.8833 11.2167 15.3 13.6667 13.8 16.5C12.3 19.3 10.8667 22.35 9.5 25.65ZM12.6 71C13.2 70.4333 13.8167 69.6833 14.45 68.75C15.1167 67.8167 15.75 66.8 16.35 65.7C16.9833 64.6333 17.5667 63.5167 18.1 62.35C18.6667 61.1833 19.1333 60.0833 19.5 59.05C19.2333 59.1167 18.7833 59.3333 18.15 59.7C17.55 60.1 16.8333 60.6 16 61.2C15.1667 61.8 14.2833 62.45 13.35 63.15C12.4167 63.8833 11.5167 64.6167 10.65 65.35C9.81667 66.1167 9.05 66.85 8.35 67.55C7.68333 68.25 7.18333 68.8667 6.85 69.4C6.18333 70.5 5.95 71.35 6.15 71.95C6.35 72.5833 6.78333 72.95 7.45 73.05C8.15 73.1833 8.96667 73.0667 9.9 72.7C10.8667 72.3667 11.7667 71.8 12.6 71Z" fill="#DFA727"/>
</svg>
